<svg width="34" height="34" viewBox="0 0 34 34" fill="none" xmlns="http://www.w3.org/2000/svg">
<path fill-rule="evenodd" clip-rule="evenodd" d="M4.25002 8.49984H29.75V25.4998H4.25002V8.49984ZM1.41669 8.49984C1.41669 6.93506 2.68533 5.6665 4.25002 5.6665H29.75C31.3147 5.6665 32.5834 6.93506 32.5834 8.49984V25.4998C32.5834 27.0647 31.3147 28.3332 29.75 28.3332H4.25002C2.68533 28.3332 1.41669 27.0647 1.41669 25.4998V8.49984ZM9.91669 21.2498C9.13433 21.2498 8.50002 20.6156 8.50002 19.8332V18.4165H7.08335C6.301 18.4165 5.66669 17.7823 5.66669 16.9998C5.66669 16.2174 6.301 15.5832 7.08335 15.5832H8.50002V14.1665C8.50002 13.3841 9.13433 12.7498 9.91669 12.7498C10.699 12.7498 11.3334 13.3841 11.3334 14.1665V15.5832H12.75C13.5324 15.5832 14.1667 16.2174 14.1667 16.9998C14.1667 17.7823 13.5324 18.4165 12.75 18.4165H11.3334V19.8332C11.3334 20.6156 10.699 21.2498 9.91669 21.2498ZM28.3334 15.5832C28.3334 16.3656 27.699 16.9998 26.9167 16.9998C26.1344 16.9998 25.5 16.3656 25.5 15.5832C25.5 14.8007 26.1344 14.1665 26.9167 14.1665C27.699 14.1665 28.3334 14.8007 28.3334 15.5832ZM22.6667 18.4165C22.6667 19.1989 23.3011 19.8332 24.0834 19.8332C24.8656 19.8332 25.5 19.1989 25.5 18.4165C25.5 17.6341 24.8656 16.9998 24.0834 16.9998C23.3011 16.9998 22.6667 17.6341 22.6667 18.4165Z" fill="#3B58B6"/>
</svg>
