<svg width="35" height="34" viewBox="0 0 35 34" fill="none" xmlns="http://www.w3.org/2000/svg">
<path d="M21.0417 5.66683H21.0488H21.0417ZM21.0417 5.66683L17.5 14.1668L24.5833 18.2723L13.9583 28.3335L17.5 19.8335L10.4167 15.7252L21.0417 5.66683ZM21.0417 2.8335C20.2455 2.8505 19.5839 3.14375 19.0881 3.61408L8.46734 13.6653C7.81851 14.2816 7.49693 15.1656 7.60318 16.0538C7.70518 16.9407 8.22226 17.7283 8.99434 18.176L13.9272 21.0391L11.3403 27.2455C10.8275 28.4794 11.2468 29.9074 12.349 30.6682C12.8363 31.0025 13.3959 31.1697 13.9569 31.1697C14.6624 31.1697 15.3637 30.9062 15.9048 30.3933L26.5298 20.3307C27.1787 19.7159 27.5003 18.8319 27.394 17.9437C27.2906 17.0554 26.7735 16.2677 26.0028 15.8215L21.07 12.9627L23.6044 6.88091C23.7787 6.51258 23.8764 6.10033 23.8764 5.66683C23.8764 4.10566 22.6156 2.83916 21.0417 2.8335Z" fill="#3B58B6"/>
</svg>
