<svg width="35" height="34" viewBox="0 0 35 34" fill="none" xmlns="http://www.w3.org/2000/svg">
<path fill-rule="evenodd" clip-rule="evenodd" d="M10.4166 2.8335H24.5833C26.1481 2.8335 27.4166 4.10202 27.4166 5.66683V28.3335C27.4166 29.8983 26.1481 31.1668 24.5833 31.1668H10.4166C8.85184 31.1668 7.58331 29.8983 7.58331 28.3335V5.66683C7.58331 4.10202 8.85184 2.8335 10.4166 2.8335ZM10.4166 5.66683V28.3335H24.5833V5.66683H10.4166ZM17.5 26.9168C16.7176 26.9168 16.0833 26.2826 16.0833 25.5002C16.0833 24.7178 16.7176 24.0835 17.5 24.0835C18.2824 24.0835 18.9166 24.7178 18.9166 25.5002C18.9166 26.2826 18.2824 26.9168 17.5 26.9168Z" fill="#3B58B6"/>
</svg>
