<svg width="34" height="34" viewBox="0 0 34 34" fill="none" xmlns="http://www.w3.org/2000/svg">
<path d="M11.0925 22.1993C7.78404 22.3024 4.5696 21.09 2.15333 18.8277C1.91434 18.6205 1.75154 18.3393 1.69087 18.0289C1.63019 17.7185 1.67513 17.3968 1.81852 17.1149C1.96192 16.833 2.19552 16.6072 2.48212 16.4734C2.76872 16.3397 3.09183 16.3057 3.4 16.3768C4.26831 16.5108 5.15641 16.4226 5.98137 16.1203C6.80633 15.8181 7.54125 15.3117 8.1175 14.6485C8.54171 13.6719 9.23976 12.8391 10.1272 12.2508C11.0147 11.6625 12.0536 11.3439 13.1183 11.3335C14.5562 11.3372 15.9341 11.9101 16.9508 12.9268C17.9676 13.9435 18.5404 15.3215 18.5442 16.7593C18.5442 19.8618 15.7108 22.1852 12.0983 22.1852H11.0925V22.1993ZM7.16833 18.7002C8.59057 19.2216 10.1041 19.4482 11.6167 19.366H12.0983C14.1525 19.366 15.7108 18.261 15.7108 16.7735C15.7127 16.4319 15.647 16.0932 15.5176 15.777C15.3881 15.4609 15.1975 15.1734 14.9565 14.9312C14.7156 14.6889 14.4292 14.4967 14.1137 14.3655C13.7983 14.2343 13.46 14.1668 13.1183 14.1668C12.5977 14.1724 12.0903 14.3312 11.6595 14.6235C11.2286 14.9158 10.8935 15.3285 10.6958 15.8102C9.92614 17.1835 8.6663 18.2157 7.16833 18.7002Z" fill="#3B58B6"/>
<path d="M23.3891 22.1993H23.1483C22.9644 22.1846 22.7797 22.1846 22.5958 22.1993C21.5531 22.2379 20.5119 22.0892 19.5216 21.7602C19.345 21.697 19.1826 21.5993 19.044 21.4728C18.9054 21.3464 18.7933 21.1936 18.7141 21.0235C18.5725 20.6786 18.5725 20.2917 18.7141 19.9468C18.842 19.5937 19.1048 19.3059 19.4449 19.1465C19.7849 18.9871 20.1743 18.9692 20.5275 19.0968C21.231 19.3029 21.9622 19.3984 22.695 19.3802H23.205C24.5446 19.4257 25.8795 19.1992 27.1291 18.7143C25.6517 18.2299 24.4022 17.2223 23.6158 15.881C23.4224 15.3794 23.0825 14.9477 22.6403 14.6419C22.1982 14.3362 21.6742 14.1707 21.1366 14.1668C20.4491 14.1668 19.7897 14.44 19.3035 14.9262C18.8173 15.4123 18.5441 16.0718 18.5441 16.7593C18.5441 17.1351 18.3949 17.4954 18.1292 17.7611C17.8635 18.0267 17.5032 18.176 17.1275 18.176C16.7518 18.176 16.3914 18.0267 16.1257 17.7611C15.8601 17.4954 15.7108 17.1351 15.7108 16.7593C15.7146 15.3215 16.2874 13.9435 17.3041 12.9268C18.3209 11.9101 19.6988 11.3372 21.1366 11.3335C22.2018 11.3421 23.2414 11.66 24.1293 12.2485C25.0171 12.837 25.7147 13.6708 26.1375 14.6485C26.6327 15.201 27.2371 15.6449 27.9125 15.9521C28.588 16.2594 29.3197 16.4233 30.0616 16.4335C30.3238 16.4356 30.5853 16.407 30.8408 16.3485C31.1523 16.271 31.4808 16.3016 31.7726 16.4352C32.0644 16.5688 32.3022 16.7975 32.4471 17.0839C32.5919 17.3703 32.6352 17.6974 32.5699 18.0116C32.5046 18.3258 32.3345 18.6086 32.0875 18.8135C29.7311 21.0183 26.616 22.2309 23.3891 22.1993Z" fill="#3B58B6"/>
</svg>
