<svg width="35" height="34" viewBox="0 0 35 34" fill="none" xmlns="http://www.w3.org/2000/svg">
<path d="M18 4C10.5423 4 4.5 10.0423 4.5 17.5C4.5 24.9577 10.5423 31 18 31C25.4577 31 31.5 24.9577 31.5 17.5C31.5 10.0423 25.4577 4 18 4ZM18 28.3871C11.9958 28.3871 7.1129 23.5042 7.1129 17.5C7.1129 11.4958 11.9958 6.6129 18 6.6129C24.0042 6.6129 28.8871 11.4958 28.8871 17.5C28.8871 23.5042 24.0042 28.3871 18 28.3871ZM13.6452 16.629C14.6087 16.629 15.3871 15.8506 15.3871 14.8871C15.3871 13.9236 14.6087 13.1452 13.6452 13.1452C12.6817 13.1452 11.9032 13.9236 11.9032 14.8871C11.9032 15.8506 12.6817 16.629 13.6452 16.629ZM22.3548 16.629C23.3183 16.629 24.0968 15.8506 24.0968 14.8871C24.0968 13.9236 23.3183 13.1452 22.3548 13.1452C21.3913 13.1452 20.6129 13.9236 20.6129 14.8871C20.6129 15.8506 21.3913 16.629 22.3548 16.629ZM22.5726 20.581C21.4403 21.9419 19.7692 22.7258 18 22.7258C16.2308 22.7258 14.5597 21.9474 13.4274 20.581C12.9647 20.0258 12.1373 19.955 11.5875 20.4123C11.0323 20.875 10.9615 21.697 11.4187 22.2522C13.0518 24.2119 15.4524 25.3333 18 25.3333C20.5476 25.3333 22.9482 24.2119 24.5812 22.2522C25.044 21.697 24.9677 20.875 24.4125 20.4123C23.8627 19.955 23.0353 20.0258 22.5726 20.581Z" fill="#3B58B6"/>
</svg>
