<svg width="34" height="34" viewBox="0 0 34 34" fill="none" xmlns="http://www.w3.org/2000/svg">
<path d="M24.9975 30C24.8252 30.0006 24.6555 29.9585 24.5031 29.8773L17 25.8921L9.49557 29.8773C9.32067 29.9697 9.12369 30.0109 8.92684 29.9963C8.72999 29.9817 8.5411 29.9118 8.38146 29.7946C8.22183 29.6773 8.09781 29.5173 8.02337 29.3327C7.94894 29.1481 7.92707 28.9461 7.96021 28.7496L9.39387 20.3097L3.32023 14.3322C3.17859 14.1929 3.07839 14.0163 3.03095 13.8225C2.98351 13.6286 2.99073 13.4252 3.05179 13.2353C3.11286 13.0453 3.22533 12.8765 3.37649 12.7477C3.52765 12.619 3.71145 12.5356 3.90712 12.5069L12.2979 11.2757L16.0502 3.59628C16.1377 3.41729 16.273 3.26659 16.4408 3.16122C16.6087 3.05584 16.8024 3 17 3C17.1977 3 17.3914 3.05584 17.5592 3.16122C17.7271 3.26659 17.8624 3.41729 17.9499 3.59628L21.7022 11.2757L30.0923 12.5069C30.288 12.5355 30.4719 12.6188 30.6231 12.7475C30.7744 12.8762 30.8869 13.0451 30.9481 13.235C31.0092 13.425 31.0165 13.6284 30.9691 13.8223C30.9217 14.0162 30.8215 14.1929 30.6799 14.3322L24.6062 20.3097L26.0399 28.7496C26.0659 28.9031 26.0584 29.0605 26.0179 29.2108C25.9775 29.3611 25.905 29.5006 25.8056 29.6197C25.7062 29.7388 25.5823 29.8345 25.4424 29.9002C25.3026 29.9659 25.1503 29.9999 24.9961 30H24.9975ZM6.33587 14.313L11.2689 19.1699C11.3916 19.2907 11.4834 19.4397 11.5366 19.6042C11.5897 19.7686 11.6026 19.9437 11.574 20.1143L10.4094 26.972L16.5057 23.7365C16.6581 23.6553 16.8278 23.6128 17 23.6128C17.1723 23.6128 17.342 23.6553 17.4944 23.7365L23.5921 26.9742L22.4261 20.1143C22.3971 19.9434 22.4096 19.768 22.4627 19.6031C22.5157 19.4382 22.6076 19.2888 22.7305 19.1677L27.6642 14.313L20.8469 13.3144C20.677 13.2894 20.5157 13.2231 20.3768 13.1212C20.2379 13.0194 20.1256 12.8849 20.0496 12.7294L17 6.49016L13.9512 12.7294C13.8751 12.885 13.7627 13.0195 13.6237 13.1214C13.4847 13.2233 13.3232 13.2895 13.1532 13.3144L6.33587 14.313Z" fill="#3B58B6"/>
</svg>
