<svg width="42" height="42" viewBox="0 0 42 42" fill="none" xmlns="http://www.w3.org/2000/svg">
<path d="M14.7496 18.9164C15.1617 18.9164 15.5645 18.7944 15.9071 18.5654C16.2498 18.3364 16.5168 18.0112 16.6743 17.6304C16.832 17.2497 16.8733 16.8309 16.793 16.4267C16.7125 16.0227 16.514 15.6514 16.2228 15.36C15.9314 15.0687 15.5602 14.8703 15.1561 14.7899C14.7519 14.7095 14.333 14.7507 13.9524 14.9084C13.5717 15.0661 13.2463 15.3331 13.0174 15.6757C12.7885 16.0184 12.6663 16.4212 12.6663 16.8332C12.6663 17.3857 12.8858 17.9157 13.2765 18.3062C13.6672 18.6969 14.1971 18.9164 14.7496 18.9164ZM20.9995 0.166504C16.8793 0.166504 12.8513 1.38835 9.42523 3.67755C5.9992 5.96673 3.32895 9.22046 1.7521 13.0273C0.175274 16.8339 -0.237275 21.0229 0.566575 25.0642C1.37042 29.1054 3.35462 32.8177 6.2682 35.7312C9.1818 38.6449 12.894 40.6289 16.9353 41.4329C20.9765 42.2367 25.1655 41.8242 28.9723 40.2474C32.779 38.6704 36.0328 36.0002 38.322 32.5742C40.611 29.1482 41.833 25.1202 41.833 20.9999C41.833 18.2639 41.294 15.5549 40.247 13.0273C39.2 10.4996 37.6655 8.20298 35.731 6.26843C33.7965 4.33388 31.4998 2.7993 28.9723 1.75233C26.4445 0.705354 23.7355 0.166504 20.9995 0.166504ZM20.9995 37.6664C17.7033 37.6664 14.4809 36.6889 11.7401 34.8577C8.99927 33.0262 6.86308 30.4234 5.6016 27.3779C4.34015 24.3324 4.0101 20.9814 4.65317 17.7484C5.29627 14.5153 6.88363 11.5456 9.2145 9.2147C11.5454 6.88383 14.5151 5.2965 17.748 4.6534C20.981 4.01033 24.3323 4.34038 27.3778 5.60183C30.423 6.8633 33.026 8.9995 34.8575 11.7403C36.6888 14.4812 37.6663 17.7034 37.6663 20.9999C37.6663 25.4202 35.9103 29.6594 32.7848 32.7849C29.659 35.9104 25.42 37.6664 20.9995 37.6664ZM27.2495 23.0832H14.7496C14.1971 23.0832 13.6672 23.3027 13.2765 23.6934C12.8858 24.0842 12.6663 24.6139 12.6663 25.1664C12.6663 27.3767 13.5443 29.4962 15.1071 31.0589C16.6698 32.6219 18.7895 33.4999 20.9995 33.4999C23.2098 33.4999 25.3293 32.6219 26.8923 31.0589C28.455 29.4962 29.333 27.3767 29.333 25.1664C29.333 24.6139 29.1135 24.0842 28.7228 23.6934C28.332 23.3027 27.8023 23.0832 27.2495 23.0832ZM20.9995 29.3332C20.269 29.3324 19.5513 29.1394 18.9188 28.7739C18.286 28.4082 17.7608 27.8827 17.3955 27.2499H24.6038C24.2385 27.8827 23.713 28.4082 23.0805 28.7739C22.448 29.1394 21.7303 29.3324 20.9995 29.3332ZM27.2495 14.7498C26.8375 14.7498 26.4348 14.872 26.0923 15.1009C25.7495 15.3299 25.4825 15.6552 25.3248 16.0359C25.1673 16.4167 25.126 16.8354 25.2063 17.2397C25.2868 17.6437 25.485 18.0149 25.7765 18.3062C26.0678 18.5977 26.439 18.7962 26.8433 18.8764C27.2473 18.9569 27.6663 18.9157 28.0468 18.7579C28.4275 18.6002 28.753 18.3332 28.9818 17.9907C29.2108 17.6479 29.333 17.2452 29.333 16.8332C29.333 16.2807 29.1135 15.7507 28.7228 15.36C28.332 14.9693 27.8023 14.7498 27.2495 14.7498Z" fill="#5EF38C"/>
</svg>
