<svg width="42" height="42" viewBox="0 0 42 42" fill="none" xmlns="http://www.w3.org/2000/svg">
<path d="M25.9163 25.6457C24.5235 26.7684 22.7885 27.3809 20.9995 27.3809C19.2108 27.3809 17.4755 26.7684 16.083 25.6457C15.6575 25.2919 15.109 25.1219 14.5581 25.1727C14.0072 25.2234 13.4991 25.4909 13.1454 25.9164C12.7918 26.3419 12.6217 26.8904 12.6725 27.4414C12.7233 27.9922 12.9908 28.5004 13.4163 28.8539C15.5441 30.6302 18.2278 31.6032 20.9995 31.6032C23.7713 31.6032 26.4553 30.6302 28.583 28.8539C29.0085 28.5004 29.276 27.9922 29.3268 27.4414C29.3775 26.8904 29.2075 26.3419 28.8538 25.9164C28.6788 25.7059 28.4638 25.5317 28.2215 25.4042C27.979 25.2764 27.714 25.1979 27.441 25.1727C26.8903 25.1219 26.3418 25.2919 25.9163 25.6457ZM15.1871 17.9582C15.5775 18.3462 16.1055 18.5639 16.6558 18.5639C17.2063 18.5639 17.7343 18.3462 18.1245 17.9582C18.5128 17.5679 18.7305 17.0397 18.7305 16.4894C18.7305 15.939 18.5128 15.411 18.1245 15.0207C16.9323 13.8894 15.3515 13.2588 13.7079 13.2588C12.0644 13.2588 10.4835 13.8894 9.29128 15.0207C9.07318 15.2074 8.89605 15.4373 8.771 15.6957C8.64595 15.9542 8.57568 16.2357 8.5646 16.5227C8.55352 16.8094 8.60188 17.0957 8.7066 17.3629C8.81135 17.6304 8.97023 17.8732 9.17325 18.0762C9.37628 18.2792 9.61908 18.4382 9.88643 18.5429C10.1538 18.6477 10.4399 18.6959 10.7268 18.6849C11.0137 18.6737 11.2953 18.6034 11.5537 18.4784C11.8122 18.3534 12.042 18.1762 12.2288 17.9582C12.4225 17.7629 12.6529 17.6079 12.9067 17.5022C13.1606 17.3964 13.4329 17.3419 13.7079 17.3419C13.983 17.3419 14.2553 17.3964 14.5091 17.5022C14.763 17.6079 14.9934 17.7629 15.1871 17.9582ZM32.708 15.0207C31.5158 13.8894 29.9348 13.2588 28.2913 13.2588C26.6478 13.2588 25.0668 13.8894 23.8745 15.0207C23.5333 15.4192 23.355 15.9319 23.3753 16.4562C23.3955 16.9804 23.6128 17.4779 23.9838 17.8489C24.355 18.2199 24.8523 18.4374 25.3765 18.4577C25.901 18.4779 26.4135 18.2994 26.812 17.9582C27.0058 17.7629 27.2363 17.6079 27.49 17.5022C27.744 17.3964 28.0163 17.3419 28.2913 17.3419C28.5663 17.3419 28.8385 17.3964 29.0925 17.5022C29.3463 17.6079 29.5768 17.7629 29.7705 17.9582C30.1608 18.3462 30.6888 18.5639 31.2393 18.5639C31.7895 18.5639 32.3175 18.3462 32.708 17.9582C33.096 17.5679 33.3138 17.0397 33.3138 16.4894C33.3138 15.939 33.096 15.411 32.708 15.0207ZM20.9995 0.166504C16.8793 0.166504 12.8513 1.38835 9.42523 3.67755C5.9992 5.96673 3.32895 9.22046 1.7521 13.0273C0.175274 16.8339 -0.237275 21.0229 0.566575 25.0642C1.37042 29.1054 3.35462 32.8177 6.2682 35.7312C9.1818 38.6449 12.894 40.6289 16.9353 41.4329C20.9765 42.2367 25.1655 41.8242 28.9723 40.2474C32.779 38.6704 36.0328 36.0002 38.322 32.5742C40.611 29.1482 41.833 25.1202 41.833 20.9999C41.833 18.2639 41.294 15.5549 40.247 13.0273C39.2 10.4996 37.6655 8.20298 35.731 6.26843C33.7965 4.33388 31.4998 2.7993 28.9723 1.75233C26.4445 0.705354 23.7355 0.166504 20.9995 0.166504ZM20.9995 37.6664C17.7033 37.6664 14.4809 36.6889 11.7401 34.8577C8.99927 33.0262 6.86308 30.4234 5.6016 27.3779C4.34015 24.3324 4.0101 20.9814 4.65317 17.7484C5.29627 14.5153 6.88363 11.5456 9.2145 9.2147C11.5454 6.88383 14.5151 5.2965 17.748 4.6534C20.981 4.01033 24.3323 4.34038 27.3778 5.60183C30.423 6.8633 33.026 8.9995 34.8575 11.7403C36.6888 14.4812 37.6663 17.7034 37.6663 20.9999C37.6663 25.4202 35.9103 29.6594 32.7848 32.7849C29.659 35.9104 25.42 37.6664 20.9995 37.6664Z" fill="#5EF38C"/>
</svg>
