<svg width="21" height="12" viewBox="0 0 21 12" fill="none" xmlns="http://www.w3.org/2000/svg">
<path d="M9.49314 5.90713C6.99037 5.88631 4.48762 5.86963 1.98486 5.8415C1.48601 5.83579 0.986458 5.79556 0.489552 5.7454C0.407358 5.73621 0.329756 5.70177 0.267033 5.64656C0.204172 5.59136 0.158976 5.51797 0.137419 5.43597C0.0966702 5.30471 0.238523 5.1185 0.407915 5.09111C0.572159 5.06459 0.73571 5.02341 0.900789 5.0132C1.95538 4.94756 3.00983 4.85466 4.06539 4.83506C6.23395 4.79501 8.40317 4.7849 10.5722 4.78236C12.6301 4.77993 14.6881 4.80627 16.746 4.81124C17.0764 4.81209 17.407 4.76933 17.7369 4.73904C17.7588 4.7335 17.779 4.72239 17.7956 4.70674C17.8122 4.6911 17.8247 4.67141 17.832 4.6495C17.8379 4.59719 17.8229 4.50886 17.789 4.4901C17.1566 4.13699 16.532 3.7655 15.8817 3.45037C14.369 2.71724 12.9499 1.81824 11.5318 0.916249C11.2987 0.76801 11.0545 0.617429 10.9604 0.323296C10.9434 0.269757 10.9167 0.178059 10.9384 0.16015C11.0163 0.0856463 11.1108 0.0320704 11.2137 0.00421486C11.3232 -0.00905631 11.4342 0.009156 11.5342 0.056819C11.8886 0.221747 12.2404 0.393806 12.5851 0.578706C15.0496 1.9002 17.5091 3.22956 19.975 4.54749C20.9051 5.04443 21.3471 5.52637 20.2305 6.61899C19.9089 6.93393 19.5835 7.24841 19.2337 7.52847C17.6115 8.82866 15.9833 10.1209 14.3493 11.4052C14.1246 11.5708 13.8877 11.7182 13.6407 11.8459C13.4796 11.9357 13.3183 11.8823 13.1792 11.7747C13.0261 11.6561 12.9311 11.3113 12.9838 11.1597C13.1011 10.8231 13.3348 10.5761 13.5857 10.3525C14.5519 9.49159 15.5233 8.63684 16.4998 7.78829C17.1344 7.23379 17.7756 6.68743 18.4092 6.13179C18.4405 6.10431 18.442 6.01927 18.4293 5.96809C18.421 5.94593 18.4076 5.92619 18.3902 5.91053C18.3728 5.89489 18.352 5.88381 18.3295 5.87826C17.9984 5.85594 17.6666 5.82753 17.3352 5.82931C14.7211 5.8435 12.107 5.86119 9.49286 5.88237L9.49314 5.90713Z" fill="#3B58B6"/>
</svg>
